<svg width="62" height="60" viewBox="0 0 62 60" fill="none" xmlns="http://www.w3.org/2000/svg">
<rect x="1" width="60" height="60" fill="#48ACF0"/>
<g filter="url(#filter0_d)">
<path d="M8.59766 28.0078C8.05078 28.0078 7.52995 27.9036 7.03516 27.6953C6.55339 27.474 6.13021 27.1875 5.76562 26.8359C5.40104 26.4714 5.11458 26.0482 4.90625 25.5664C4.69792 25.0716 4.59375 24.5508 4.59375 24.0039V15.9961C4.59375 15.4492 4.69792 14.9349 4.90625 14.4531C5.11458 13.9583 5.40104 13.5352 5.76562 13.1836C6.13021 12.819 6.55339 12.5326 7.03516 12.3242C7.52995 12.1029 8.05078 11.9922 8.59766 11.9922H22.1914C22.7383 11.9922 23.2526 12.1029 23.7344 12.3242C24.2292 12.5326 24.6589 12.819 25.0234 13.1836C25.388 13.5352 25.6745 13.9583 25.8828 14.4531C26.0911 14.9349 26.1953 15.4492 26.1953 15.9961V19.6094H22.1914V15.9961H8.59766V24.0039H22.1914C22.7383 24.0039 23.2526 24.1081 23.7344 24.3164C24.2292 24.5247 24.6589 24.8112 25.0234 25.1758C25.388 25.5404 25.6745 25.9701 25.8828 26.4648C26.0911 26.9466 26.1953 27.4609 26.1953 28.0078V35.9961C26.1953 36.543 26.0911 37.0638 25.8828 37.5586C25.6745 38.0404 25.388 38.4635 25.0234 38.8281C24.6589 39.1927 24.2292 39.4792 23.7344 39.6875C23.2526 39.8958 22.7383 40 22.1914 40H8.20703C7.66016 40 7.13932 39.8958 6.64453 39.6875C6.16276 39.4792 5.73958 39.1927 5.375 38.8281C5.01042 38.4635 4.72396 38.0404 4.51562 37.5586C4.30729 37.0638 4.20312 36.543 4.20312 35.9961V32.4023H8.20703V35.9961H22.1914V28.0078H8.59766ZM47.6602 35.9961C49.5221 35.9961 50.9544 35.4948 51.957 34.4922C52.9596 33.4896 53.4609 32.0573 53.4609 30.1953V21.7969C53.4609 20.8854 53.3307 20.0716 53.0703 19.3555C52.8099 18.6393 52.4258 18.0339 51.918 17.5391C51.4232 17.0312 50.8177 16.6471 50.1016 16.3867C49.3854 16.1263 48.5716 15.9961 47.6602 15.9961H37.4258V35.9961H47.6602ZM33.4219 40V11.9922H47.6602C49.1576 11.9922 50.5052 12.2266 51.7031 12.6953C52.9141 13.151 53.9427 13.8086 54.7891 14.668C55.6484 15.5143 56.306 16.543 56.7617 17.7539C57.2305 18.9648 57.4648 20.3125 57.4648 21.7969V30.1953C57.4648 31.6797 57.2305 33.0273 56.7617 34.2383C56.306 35.4492 55.6484 36.4844 54.7891 37.3438C53.9427 38.1901 52.9141 38.8477 51.7031 39.3164C50.5052 39.7721 49.1576 40 47.6602 40H33.4219Z" fill="black"/>
</g>
<defs>
<filter id="filter0_d" x="0.203125" y="11.9922" width="61.2617" height="36.0078" filterUnits="userSpaceOnUse" color-interpolation-filters="sRGB">
<feFlood flood-opacity="0" result="BackgroundImageFix"/>
<feColorMatrix in="SourceAlpha" type="matrix" values="0 0 0 0 0 0 0 0 0 0 0 0 0 0 0 0 0 0 127 0"/>
<feOffset dy="4"/>
<feGaussianBlur stdDeviation="2"/>
<feColorMatrix type="matrix" values="0 0 0 0 1 0 0 0 0 1 0 0 0 0 1 0 0 0 0.25 0"/>
<feBlend mode="normal" in2="BackgroundImageFix" result="effect1_dropShadow"/>
<feBlend mode="normal" in="SourceGraphic" in2="effect1_dropShadow" result="shape"/>
</filter>
</defs>
</svg>
